<svg xmlns="http://www.w3.org/2000/svg" viewBox="0 0 280 60" role="img" aria-label="Chat on WhatsApp">
	<rect width="280" height="60" rx="30" fill="#25D366"/>
	<path fill="#fff" d="M44.3 14.5c-7.5 0-13.6 6.1-13.6 13.6 0 2.4.6 4.7 1.8 6.8l-1.9 7 7.2-1.9c2 1.1 4.3 1.7 6.6 1.7 7.5 0 13.6-6.1 13.6-13.6S51.8 14.5 44.3 14.5zm0 24.9c-2 0-3.9-.5-5.6-1.5l-.4-.2-4.8 1.3 1.3-4.7-.2-.3c-1-1.6-1.5-3.5-1.5-5.4 0-5.9 4.8-10.7 10.7-10.7s10.7 4.8 10.7 10.7-4.8 10.7-10.7 10.7zm7.2-8.2c-.3-.1-1.7-.8-2-1-.2-.1-.4-.1-.6.1-.2.2-.7.8-.9 1-.2.2-.4.2-.7.1-.3-.1-1.1-.4-2.1-1.3-.8-.7-1.3-1.5-1.5-1.8-.2-.3 0-.4.2-.6.2-.2.3-.3.4-.5.1-.2 0-.3 0-.5 0-.1-.5-1.1-.7-1.5-.2-.4-.4-.4-.6-.4h-.5c-.2 0-.5.1-.6.4-.2.3-.8.8-.8 2.1s.8 2.4.9 2.6c.1.2 1.7 2.7 4.2 3.8.6.3 1.1.5 1.5.6.6.2 1.1.2 1.6.1.5-.1 1.6-.7 1.8-1.3.2-.6.2-1.1.1-1.2-.1-.1-.3-.2-.6-.3z"/>
	<text x="78" y="37" fill="#fff" font-family="Helvetica Neue, Helvetica, Arial, sans-serif" font-size="18" font-weight="600">Chat on WhatsApp</text>
</svg>
